<svg width="288" height="288" viewBox="0 0 288 288" fill="none" xmlns="http://www.w3.org/2000/svg">
<path d="M85.586 231.423L86.1416 230.591L85.586 231.423ZM43.3849 174.521L42.4279 174.812L43.3849 174.521ZM46.861 103.764L45.9371 103.381L46.861 103.764ZM94.4363 51.2724L94.9077 52.1543L94.4363 51.2724ZM164.513 40.8776L164.318 41.8584L164.513 40.8776ZM225.277 77.2982L224.504 77.9326L225.277 77.2982ZM248.436 144.707C248.827 145.098 249.46 145.098 249.85 144.707L256.214 138.343C256.605 137.953 256.605 137.319 256.214 136.929C255.824 136.538 255.191 136.538 254.8 136.929L249.143 142.586L243.486 136.929C243.096 136.538 242.463 136.538 242.072 136.929C241.682 137.319 241.682 137.953 242.072 138.343L248.436 144.707ZM217.64 217.64C200.603 234.677 178.186 245.28 154.208 247.641L154.404 249.632C178.843 247.225 201.69 236.418 219.055 219.054L217.64 217.64ZM154.208 247.641C130.23 250.003 106.175 243.977 86.1416 230.591L85.0305 232.254C105.449 245.897 129.966 252.039 154.404 249.632L154.208 247.641ZM86.1416 230.591C66.1082 217.206 51.3359 197.287 44.3418 174.231L42.4279 174.812C49.5564 198.311 64.6123 218.611 85.0305 232.254L86.1416 230.591ZM44.3418 174.231C37.3477 151.175 38.5645 126.406 47.7849 104.146L45.9371 103.381C36.5396 126.068 35.2995 151.312 42.4279 174.812L44.3418 174.231ZM47.7849 104.146C57.0052 81.8864 73.6587 63.5121 94.9077 52.1543L93.9649 50.3905C72.3078 61.9664 55.3345 80.6935 45.9371 103.381L47.7849 104.146ZM94.9077 52.1543C116.157 40.7965 140.687 37.1579 164.318 41.8584L164.708 39.8968C140.623 35.106 115.622 38.8145 93.9649 50.3905L94.9077 52.1543ZM164.318 41.8584C187.949 46.5589 209.219 59.3077 224.504 77.9326L226.05 76.6638C210.471 57.6812 188.793 44.6876 164.708 39.8968L164.318 41.8584ZM224.504 77.9326C239.789 96.5574 248.143 119.906 248.143 144H250.143C250.143 119.443 241.628 95.6463 226.05 76.6638L224.504 77.9326Z" fill="black"/>
<rect x="115.429" y="178.286" width="13.1429" height="25.1429" fill="#E30613" fill-opacity="0.4" stroke="#E30613" stroke-width="2"/>
<rect x="160" y="178.286" width="13.1429" height="25.1429" stroke="black" stroke-width="2"/>
<path fill-rule="evenodd" clip-rule="evenodd" d="M104.571 83.5714C101.494 83.5714 99 86.0658 99 89.1428V203.429V204.429H100L143 204.429L144 204.429H145L188 204.429H189V203.429V134.857C189 131.78 186.506 129.286 183.429 129.286H148.571C147.212 129.286 145.967 129.772 145 130.581V89.1428C145 86.0658 142.506 83.5714 139.429 83.5714H104.571ZM145 134.857V202.429H187V134.857C187 132.885 185.401 131.286 183.429 131.286H148.571C146.599 131.286 145 132.885 145 134.857ZM143 134.857V89.1428C143 87.1704 141.401 85.5714 139.429 85.5714H104.571C102.599 85.5714 101 87.1704 101 89.1428V202.429H143V134.857Z" fill="black"/>
</svg>
