<svg width="288" height="288" viewBox="0 0 288 288" fill="none" xmlns="http://www.w3.org/2000/svg">
<path d="M121.428 167.429V167.429C121.428 151.965 133.964 139.429 149.428 139.429H235.428" stroke="#242932" stroke-width="2" stroke-dasharray="4 4"/>
<path d="M221.714 112V153.143V166.857L262.857 139.429L221.714 112Z" fill="#E30613" fill-opacity="0.2"/>
<path d="M221.714 129.143V112L262.857 139.429L221.714 166.857V153.143" stroke="#E30613" stroke-width="2" stroke-linejoin="round"/>
<path d="M198.857 110.694V91.4286C198.857 82.592 191.694 75.4286 182.857 75.4286H54.8572C46.0206 75.4286 38.8572 82.592 38.8572 91.4286V182.857C38.8572 191.694 46.0206 198.857 54.8572 198.857H182.857C191.694 198.857 198.857 191.694 198.857 182.857V163.592" stroke="#242932" stroke-width="2"/>
<path d="M64 225.286C63.4477 225.286 63 225.733 63 226.286C63 226.838 63.4477 227.286 64 227.286V225.286ZM169.143 227.286C169.695 227.286 170.143 226.838 170.143 226.286C170.143 225.733 169.695 225.286 169.143 225.286V227.286ZM64 227.286H169.143V225.286H64V227.286Z" fill="#242932"/>
</svg>
