<svg width="160" height="160" viewBox="0 0 160 160" fill="none" xmlns="http://www.w3.org/2000/svg">
<path d="M138.487 84.1432L138.054 84.7669L138.487 84.1432ZM146.504 100.931V107.333H148.023V100.931H146.504ZM142.153 111.685H88.4861V113.204H142.153V111.685ZM84.1344 107.333V100.931H82.6156V107.333H84.1344ZM92.5851 84.7669L96.7928 81.8425L95.926 80.5953L91.7183 83.5196L92.5851 84.7669ZM133.846 81.8425L138.054 84.7669L138.921 83.5196L134.713 80.5953L133.846 81.8425ZM96.7928 81.8425C107.931 74.1015 122.708 74.1015 133.846 81.8425L134.713 80.5953C123.054 72.4921 107.585 72.4921 95.926 80.5953L96.7928 81.8425ZM88.4861 111.685C86.0827 111.685 84.1344 109.737 84.1344 107.333H82.6156C82.6156 110.576 85.2439 113.204 88.4861 113.204V111.685ZM146.504 107.333C146.504 109.737 144.556 111.685 142.153 111.685V113.204C145.395 113.204 148.023 110.576 148.023 107.333H146.504ZM148.023 100.931C148.023 93.987 144.623 87.4828 138.921 83.5196L138.054 84.7669C143.348 88.4461 146.504 94.4844 146.504 100.931H148.023ZM84.1344 100.931C84.1344 94.4844 87.2912 88.4461 92.5851 84.7669L91.7183 83.5196C86.0159 87.4828 82.6156 93.987 82.6156 100.931H84.1344Z" fill="#73737E"/>
<path d="M68.8475 84.1432L68.4141 84.7669L68.8475 84.1432ZM76.8648 100.931V107.333H78.3837V100.931H76.8648ZM72.5131 111.685H18.8465V113.204H72.5131V111.685ZM14.4948 107.333V100.931H12.9759V107.333H14.4948ZM22.9455 84.7669L27.1532 81.8425L26.2863 80.5953L22.0787 83.5196L22.9455 84.7669ZM64.2064 81.8425L68.4141 84.7669L69.2809 83.5196L65.0732 80.5953L64.2064 81.8425ZM27.1532 81.8425C38.2913 74.1015 53.0683 74.1015 64.2064 81.8425L65.0732 80.5953C53.4139 72.4921 37.9456 72.4921 26.2863 80.5953L27.1532 81.8425ZM18.8465 111.685C16.4431 111.685 14.4948 109.737 14.4948 107.333H12.9759C12.9759 110.576 15.6042 113.204 18.8465 113.204V111.685ZM76.8648 107.333C76.8648 109.737 74.9165 111.685 72.5131 111.685V113.204C75.7553 113.204 78.3837 110.576 78.3837 107.333H76.8648ZM78.3837 100.931C78.3837 93.987 74.9833 87.4828 69.2809 83.5196L68.4141 84.7669C73.708 88.4461 76.8648 94.4844 76.8648 100.931H78.3837ZM14.4948 100.931C14.4948 94.4844 17.6516 88.4461 22.9455 84.7669L22.0787 83.5196C16.3763 87.4828 12.9759 93.987 12.9759 100.931H14.4948Z" fill="#73737E"/>
<path d="M42.8057 108.636C42.8057 101.919 46.1048 95.6311 51.6315 91.8139L61.6198 84.9152C72.9832 77.0668 88.017 77.0668 99.3804 84.9152L109.369 91.8139C114.895 95.6311 118.195 101.919 118.195 108.636V118.833C118.195 121.656 115.906 123.944 113.083 123.944H47.9168C45.094 123.944 42.8057 121.656 42.8057 118.833V108.636Z" fill="#303641"/>
<path d="M117.435 108.636V118.833H118.954V108.636H117.435ZM113.083 123.185H47.9168V124.704H113.083V123.185ZM43.5651 118.833V108.636H42.0462V118.833H43.5651ZM52.0631 92.4388L62.0514 85.5401L61.1882 84.2903L51.1999 91.1891L52.0631 92.4388ZM98.9488 85.5401L108.937 92.4388L109.8 91.1891L99.812 84.2903L98.9488 85.5401ZM62.0514 85.5401C73.155 77.871 87.8452 77.871 98.9488 85.5401L99.812 84.2903C88.1888 76.2625 72.8114 76.2625 61.1882 84.2903L62.0514 85.5401ZM47.9168 123.185C45.5134 123.185 43.5651 121.237 43.5651 118.833H42.0462C42.0462 122.076 44.6746 124.704 47.9168 124.704V123.185ZM117.435 118.833C117.435 121.237 115.487 123.185 113.083 123.185V124.704C116.326 124.704 118.954 122.076 118.954 118.833H117.435ZM118.954 108.636C118.954 101.67 115.532 95.148 109.8 91.1891L108.937 92.4388C114.258 96.1141 117.435 102.169 117.435 108.636H118.954ZM43.5651 108.636C43.5651 102.169 46.7417 96.1141 52.0631 92.4388L51.1999 91.1891C45.4679 95.148 42.0462 101.67 42.0462 108.636H43.5651Z" fill="#73737E"/>
<ellipse cx="80.5" cy="54.4653" rx="17.25" ry="17.4097" stroke="#73737E" stroke-width="1.51887"/>
<circle cx="115.16" cy="54.4653" r="14.5347" stroke="#73737E" stroke-width="1.51887"/>
<circle cx="45.8404" cy="54.4653" r="14.5347" stroke="#73737E" stroke-width="1.51887"/>
</svg>
