<svg width="96" height="96" viewBox="0 0 96 96" fill="none" xmlns="http://www.w3.org/2000/svg">
<mask id="path-1-inside-1_740_533" fill="white">
<path fill-rule="evenodd" clip-rule="evenodd" d="M62.3571 65.3465C62.3571 63.8188 63.1323 62.4128 64.3037 61.4322C69.7019 56.9132 73.135 50.1244 73.135 42.5337C73.135 28.9282 62.1055 17.8988 48.5 17.8988C34.8945 17.8988 23.8651 28.9282 23.8651 42.5337C23.8651 50.2707 27.4318 57.1746 33.0106 61.6909C34.2218 62.6714 35.0278 64.1008 35.0278 65.6592V67.3611C35.0278 69.9121 37.0958 71.9802 39.6468 71.9802H57.7381C60.2891 71.9802 62.3571 69.9121 62.3571 67.3611V65.3465Z"/>
</mask>
<path fill-rule="evenodd" clip-rule="evenodd" d="M62.3571 65.3465C62.3571 63.8188 63.1323 62.4128 64.3037 61.4322C69.7019 56.9132 73.135 50.1244 73.135 42.5337C73.135 28.9282 62.1055 17.8988 48.5 17.8988C34.8945 17.8988 23.8651 28.9282 23.8651 42.5337C23.8651 50.2707 27.4318 57.1746 33.0106 61.6909C34.2218 62.6714 35.0278 64.1008 35.0278 65.6592V67.3611C35.0278 69.9121 37.0958 71.9802 39.6468 71.9802H57.7381C60.2891 71.9802 62.3571 69.9121 62.3571 67.3611V65.3465Z" fill="#303641"/>
<path d="M33.0106 61.6909L34.269 60.1364L33.0106 61.6909ZM71.135 42.5337C71.135 49.5075 67.9836 55.7434 63.0199 59.8986L65.5875 62.9657C71.4202 58.083 75.135 50.7413 75.135 42.5337H71.135ZM48.5 19.8988C61.001 19.8988 71.135 30.0328 71.135 42.5337H75.135C75.135 27.8237 63.2101 15.8988 48.5 15.8988V19.8988ZM25.8651 42.5337C25.8651 30.0328 35.9991 19.8988 48.5 19.8988V15.8988C33.79 15.8988 21.8651 27.8237 21.8651 42.5337H25.8651ZM34.269 60.1364C29.1391 55.9835 25.8651 49.6417 25.8651 42.5337H21.8651C21.8651 50.8996 25.7244 58.3656 31.7522 63.2454L34.269 60.1364ZM37.0278 67.3611V65.6592H33.0278V67.3611H37.0278ZM57.7381 69.9802H39.6468V73.9802H57.7381V69.9802ZM60.3571 65.3465V67.3611H64.3571V65.3465H60.3571ZM33.0278 67.3611C33.0278 71.0167 35.9912 73.9802 39.6468 73.9802V69.9802C38.2003 69.9802 37.0278 68.8076 37.0278 67.3611H33.0278ZM31.7522 63.2454C32.582 63.9171 33.0278 64.8088 33.0278 65.6592H37.0278C37.0278 63.3929 35.8616 61.4257 34.269 60.1364L31.7522 63.2454ZM57.7381 73.9802C61.3937 73.9802 64.3571 71.0167 64.3571 67.3611H60.3571C60.3571 68.8076 59.1845 69.9802 57.7381 69.9802V73.9802ZM63.0199 59.8986C61.4789 61.1887 60.3571 63.125 60.3571 65.3465H64.3571C64.3571 64.5126 64.7858 63.6369 65.5875 62.9657L63.0199 59.8986Z" fill="#B7BAC0" mask="url(#path-1-inside-1_740_533)"/>
<path fill-rule="evenodd" clip-rule="evenodd" d="M48.5 12.1627C47.9477 12.1627 47.5 11.715 47.5 11.1627V6.54365C47.5 5.99136 47.9477 5.54365 48.5 5.54365C49.0523 5.54365 49.5 5.99136 49.5 6.54365V11.1627C49.5 11.715 49.0523 12.1627 48.5 12.1627ZM76.2142 41.7262C75.6619 41.7262 75.2142 42.1739 75.2142 42.7262C75.2142 43.2785 75.6619 43.7262 76.2142 43.7262H80.8333C81.3856 43.7262 81.8333 43.2785 81.8333 42.7262C81.8333 42.1739 81.3856 41.7262 80.8333 41.7262H76.2142ZM37.7222 75.5992C37.1699 75.5992 36.7222 76.0469 36.7222 76.5992C36.7222 77.1515 37.1699 77.5992 37.7222 77.5992H56.9682C57.6914 77.5992 58.2777 78.1855 58.2777 78.9087C58.2777 79.632 57.6914 80.2183 56.9682 80.2183H41.5714C39.7436 80.2183 38.2619 81.7 38.2619 83.5278C38.2619 85.3556 39.7436 86.8373 41.5714 86.8373H53.8888C54.6121 86.8373 55.1984 87.4236 55.1984 88.1468C55.1984 88.8701 54.6121 89.4563 53.8888 89.4563H42.3412C41.7889 89.4563 41.3412 89.9041 41.3412 90.4563C41.3412 91.0086 41.7889 91.4563 42.3412 91.4563H53.8888C55.7166 91.4563 57.1984 89.9746 57.1984 88.1468C57.1984 86.319 55.7166 84.8373 53.8888 84.8373H41.5714C40.8481 84.8373 40.2619 84.251 40.2619 83.5278C40.2619 82.8046 40.8481 82.2183 41.5714 82.2183H56.9682C58.796 82.2183 60.2777 80.7365 60.2777 78.9087C60.2777 77.0809 58.796 75.5992 56.9682 75.5992H37.7222ZM16.1666 41.7262C15.6143 41.7262 15.1666 42.1739 15.1666 42.7262C15.1666 43.2785 15.6143 43.7262 16.1666 43.7262H20.7857C21.338 43.7262 21.7857 43.2785 21.7857 42.7262C21.7857 42.1739 21.338 41.7262 20.7857 41.7262H16.1666ZM19.8862 18.9238C20.2767 18.5333 20.9098 18.5333 21.3004 18.9238L24.5665 22.19C24.9571 22.5805 24.9571 23.2137 24.5665 23.6042C24.176 23.9947 23.5428 23.9947 23.1523 23.6042L19.8862 20.3381C19.4956 19.9475 19.4956 19.3144 19.8862 18.9238ZM75.6939 18.9238C76.0844 18.5333 76.7176 18.5333 77.1081 18.9238C77.4986 19.3144 77.4986 19.9475 77.1081 20.3381L73.8419 23.6042C73.4514 23.9947 72.8183 23.9947 72.4277 23.6042C72.0372 23.2137 72.0372 22.5805 72.4277 22.19L75.6939 18.9238Z" fill="#B7BAC0"/>
</svg>
