<svg width="338" height="338" viewBox="0 0 338 338" fill="none" xmlns="http://www.w3.org/2000/svg">
<ellipse cx="143.257" cy="0.863311" rx="0.8506" ry="0.863189" fill="white"/>
<ellipse cx="174.478" cy="20.3172" rx="0.8506" ry="0.863189" fill="white"/>
<ellipse cx="177.764" cy="36.4361" rx="0.8506" ry="0.863189" fill="white"/>
<ellipse cx="190.361" cy="26.9871" rx="0.8506" ry="0.863189" fill="white"/>
<ellipse cx="129.564" cy="35.8802" rx="0.8506" ry="0.863189" fill="white"/>
<ellipse cx="190.361" cy="66.4506" rx="0.8506" ry="0.863189" fill="white"/>
<ellipse cx="229.249" cy="88.1277" rx="0.8506" ry="0.863189" fill="white"/>
<ellipse cx="258.278" cy="122.589" rx="0.8506" ry="0.863189" fill="white"/>
<ellipse cx="114.228" cy="53.1108" rx="0.8506" ry="0.863189" fill="white"/>
<ellipse cx="85.1983" cy="56.4457" rx="0.8506" ry="0.863189" fill="white"/>
<ellipse cx="100.535" cy="69.7855" rx="0.8506" ry="0.863189" fill="white"/>
<ellipse cx="78.0791" cy="77.567" rx="0.8506" ry="0.863189" fill="white"/>
<ellipse cx="107.655" cy="23.6521" rx="0.8506" ry="0.863189" fill="white"/>
<ellipse cx="78.0791" cy="23.6521" rx="0.8506" ry="0.863189" fill="white"/>
<ellipse cx="81.3643" cy="39.2152" rx="0.8506" ry="0.863189" fill="white"/>
<ellipse cx="62.1944" cy="40.3268" rx="0.8506" ry="0.863189" fill="white"/>
<ellipse cx="68.7676" cy="64.2273" rx="0.8506" ry="0.863189" fill="white"/>
<ellipse cx="44.1201" cy="49.7758" rx="0.8506" ry="0.863189" fill="white"/>
<ellipse cx="37.5479" cy="66.4506" rx="0.8506" ry="0.863189" fill="white"/>
<ellipse cx="37.5479" cy="88.1277" rx="0.8506" ry="0.863189" fill="white"/>
<ellipse cx="55.6221" cy="84.2369" rx="0.8506" ry="0.863189" fill="white"/>
<ellipse cx="55.6221" cy="104.247" rx="0.8506" ry="0.863189" fill="white"/>
<ellipse cx="34.2608" cy="109.249" rx="0.8506" ry="0.863189" fill="white"/>
<ellipse cx="18.9258" cy="90.9068" rx="0.8506" ry="0.863189" fill="white"/>
<ellipse cx="7.42287" cy="119.254" rx="0.8506" ry="0.863189" fill="white"/>
<ellipse cx="40.834" cy="127.035" rx="0.8506" ry="0.863189" fill="white"/>
<ellipse cx="0.8506" cy="175.392" rx="0.8506" ry="0.863189" fill="white"/>
<ellipse cx="0.8506" cy="145.933" rx="0.8506" ry="0.863189" fill="white"/>
<ellipse cx="22.2119" cy="136.484" rx="0.8506" ry="0.863189" fill="white"/>
<ellipse cx="22.2119" cy="119.254" rx="0.8506" ry="0.863189" fill="white"/>
<ellipse cx="58.3604" cy="123.7" rx="0.8506" ry="0.863189" fill="white"/>
<ellipse cx="53.4317" cy="69.7855" rx="0.8506" ry="0.863189" fill="white"/>
<ellipse cx="78.0791" cy="125.924" rx="0.8506" ry="0.863189" fill="white"/>
<ellipse cx="50.6924" cy="143.154" rx="0.8506" ry="0.863189" fill="white"/>
<ellipse cx="15.6387" cy="160.385" rx="0.8506" ry="0.863189" fill="white"/>
<ellipse cx="34.2608" cy="157.05" rx="0.8506" ry="0.863189" fill="white"/>
<ellipse cx="58.3604" cy="163.164" rx="0.8506" ry="0.863189" fill="white"/>
<ellipse cx="38.6436" cy="175.392" rx="0.8506" ry="0.863189" fill="white"/>
<ellipse cx="15.6387" cy="182.062" rx="0.8506" ry="0.863189" fill="white"/>
<ellipse cx="34.2608" cy="199.848" rx="0.8506" ry="0.863189" fill="white"/>
<ellipse cx="17.2822" cy="205.962" rx="0.8506" ry="0.863189" fill="white"/>
<ellipse cx="46.8584" cy="252.652" rx="0.8506" ry="0.863189" fill="white"/>
<ellipse cx="44.1201" cy="284.889" rx="0.8506" ry="0.863189" fill="white"/>
<ellipse cx="60.0039" cy="270.994" rx="0.8506" ry="0.863189" fill="white"/>
<ellipse cx="72.0537" cy="252.652" rx="0.8506" ry="0.863189" fill="white"/>
<ellipse cx="97.7959" cy="252.652" rx="0.8506" ry="0.863189" fill="white"/>
<ellipse cx="81.3643" cy="267.659" rx="0.8506" ry="0.863189" fill="white"/>
<ellipse cx="81.9131" cy="288.224" rx="0.8506" ry="0.863189" fill="white"/>
<ellipse cx="63.2901" cy="304.899" rx="0.8506" ry="0.863189" fill="white"/>
<ellipse cx="58.3604" cy="291.559" rx="0.8506" ry="0.863189" fill="white"/>
<ellipse cx="78.0791" cy="311.569" rx="0.8506" ry="0.863189" fill="white"/>
<ellipse cx="100.535" cy="294.894" rx="0.8506" ry="0.863189" fill="white"/>
<ellipse cx="100.535" cy="274.329" rx="0.8506" ry="0.863189" fill="white"/>
<ellipse cx="139.971" cy="267.659" rx="0.8506" ry="0.863189" fill="white"/>
<ellipse cx="117.515" cy="267.659" rx="0.8506" ry="0.863189" fill="white"/>
<ellipse cx="120.801" cy="288.224" rx="0.8506" ry="0.863189" fill="white"/>
<ellipse cx="101.083" cy="316.571" rx="0.8506" ry="0.863189" fill="white"/>
<ellipse cx="120.801" cy="308.79" rx="0.8506" ry="0.863189" fill="white"/>
<ellipse cx="27.6885" cy="222.081" rx="0.8506" ry="0.863189" fill="white"/>
<ellipse cx="47.4072" cy="212.632" rx="0.8506" ry="0.863189" fill="white"/>
<ellipse cx="53.4317" cy="188.176" rx="0.8506" ry="0.863189" fill="white"/>
<ellipse cx="68.7676" cy="178.727" rx="0.8506" ry="0.863189" fill="white"/>
<ellipse cx="68.7676" cy="146.489" rx="0.8506" ry="0.863189" fill="white"/>
<ellipse cx="75.3399" cy="212.632" rx="0.8506" ry="0.863189" fill="white"/>
<ellipse cx="60.0039" cy="222.081" rx="0.8506" ry="0.863189" fill="white"/>
<ellipse cx="81.3643" cy="233.754" rx="0.8506" ry="0.863189" fill="white"/>
<ellipse cx="20.5684" cy="245.982" rx="0.8506" ry="0.863189" fill="white"/>
<ellipse cx="0.8506" cy="199.848" rx="0.8506" ry="0.863189" fill="white"/>
<ellipse cx="62.1944" cy="199.848" rx="0.8506" ry="0.863189" fill="white"/>
<ellipse cx="61.6475" cy="239.312" rx="0.8506" ry="0.863189" fill="white"/>
<ellipse cx="37.5479" cy="235.977" rx="0.8506" ry="0.863189" fill="white"/>
<ellipse cx="37.5479" cy="267.659" rx="0.8506" ry="0.863189" fill="white"/>
<ellipse cx="159.141" cy="22.5405" rx="0.8506" ry="0.863189" fill="white"/>
<ellipse cx="159.141" cy="49.22" rx="0.8506" ry="0.863189" fill="white"/>
<ellipse cx="9.06642" cy="225.416" rx="0.8506" ry="0.863189" fill="white"/>
<ellipse cx="78.0791" cy="100.912" rx="0.8506" ry="0.863189" fill="white"/>
<ellipse cx="94.5108" cy="91.4626" rx="0.8506" ry="0.863189" fill="white"/>
<ellipse cx="94.5108" cy="13.6472" rx="0.8506" ry="0.863189" fill="white"/>
<ellipse cx="124.087" cy="20.3172" rx="0.8506" ry="0.863189" fill="white"/>
<ellipse cx="120.801" cy="3.64249" rx="0.8506" ry="0.863189" fill="white"/>
<ellipse cx="101.083" cy="40.3268" rx="0.8506" ry="0.863189" fill="white"/>
<ellipse cx="126.278" cy="66.4506" rx="0.8506" ry="0.863189" fill="white"/>
<ellipse cx="114.228" cy="81.4578" rx="0.8506" ry="0.863189" fill="white"/>
<ellipse cx="152.021" cy="35.8802" rx="0.8506" ry="0.863189" fill="white"/>
<ellipse cx="191.456" cy="46.4409" rx="0.8506" ry="0.863189" fill="white"/>
<ellipse cx="225.962" cy="46.4409" rx="0.8506" ry="0.863189" fill="white"/>
<ellipse cx="224.319" cy="30.322" rx="0.8506" ry="0.863189" fill="white"/>
<ellipse cx="225.962" cy="67.5622" rx="0.8506" ry="0.863189" fill="white"/>
<ellipse cx="251.705" cy="67.5622" rx="0.8506" ry="0.863189" fill="white"/>
<ellipse cx="241.847" cy="80.9019" rx="0.8506" ry="0.863189" fill="white"/>
<ellipse cx="279.639" cy="91.4626" rx="0.8506" ry="0.863189" fill="white"/>
<ellipse cx="276.353" cy="127.035" rx="0.8506" ry="0.863189" fill="white"/>
<ellipse cx="301" cy="115.919" rx="0.8506" ry="0.863189" fill="white"/>
<ellipse cx="264.851" cy="109.249" rx="0.8506" ry="0.863189" fill="white"/>
<ellipse cx="268.137" cy="53.1108" rx="0.8506" ry="0.863189" fill="white"/>
<ellipse cx="264.851" cy="74.2321" rx="0.8506" ry="0.863189" fill="white"/>
<ellipse cx="290.594" cy="70.8972" rx="0.8506" ry="0.863189" fill="white"/>
<ellipse cx="238.56" cy="56.4457" rx="0.8506" ry="0.863189" fill="white"/>
<ellipse cx="241.847" cy="29.2103" rx="0.8506" ry="0.863189" fill="white"/>
<ellipse cx="206.792" cy="33.1011" rx="0.8506" ry="0.863189" fill="white"/>
<ellipse cx="200.22" cy="16.9822" rx="0.8506" ry="0.863189" fill="white"/>
<ellipse cx="238.56" cy="10.3123" rx="0.8506" ry="0.863189" fill="white"/>
<ellipse cx="206.792" cy="56.4457" rx="0.8506" ry="0.863189" fill="white"/>
<ellipse cx="210.079" cy="74.2321" rx="0.8506" ry="0.863189" fill="white"/>
<ellipse cx="176.668" cy="53.1108" rx="0.8506" ry="0.863189" fill="white"/>
<ellipse cx="168.452" cy="66.4506" rx="0.8506" ry="0.863189" fill="white"/>
<ellipse cx="139.971" cy="49.7758" rx="0.8506" ry="0.863189" fill="white"/>
<ellipse cx="146.544" cy="67.5622" rx="0.8506" ry="0.863189" fill="white"/>
<ellipse cx="143.257" cy="16.9822" rx="0.8506" ry="0.863189" fill="white"/>
<ellipse cx="167.904" cy="4.19824" rx="0.8506" ry="0.863189" fill="white"/>
<ellipse cx="191.456" cy="0.863311" rx="0.8506" ry="0.863189" fill="white"/>
<ellipse cx="213.365" cy="4.19824" rx="0.8506" ry="0.863189" fill="white"/>
<ellipse cx="219.39" cy="16.9822" rx="0.8506" ry="0.863189" fill="white"/>
<ellipse cx="258.278" cy="23.6521" rx="0.8506" ry="0.863189" fill="white"/>
<ellipse cx="274.709" cy="33.6569" rx="0.8506" ry="0.863189" fill="white"/>
<ellipse cx="287.307" cy="52.555" rx="0.8506" ry="0.863189" fill="white"/>
<ellipse cx="307.573" cy="74.7879" rx="0.8506" ry="0.863189" fill="white"/>
<ellipse cx="298.261" cy="91.4626" rx="0.8506" ry="0.863189" fill="white"/>
<ellipse cx="282.925" cy="109.249" rx="0.8506" ry="0.863189" fill="white"/>
<ellipse cx="258.278" cy="88.1277" rx="0.8506" ry="0.863189" fill="white"/>
<ellipse cx="245.133" cy="102.579" rx="0.8506" ry="0.863189" fill="white"/>
<ellipse cx="323.456" cy="100.912" rx="0.8506" ry="0.863189" fill="white"/>
<ellipse cx="320.17" cy="123.7" rx="0.8506" ry="0.863189" fill="white"/>
<ellipse cx="297.165" cy="136.484" rx="0.8506" ry="0.863189" fill="white"/>
<ellipse cx="316.884" cy="142.598" rx="0.8506" ry="0.863189" fill="white"/>
<ellipse cx="281.282" cy="149.268" rx="0.8506" ry="0.863189" fill="white"/>
<ellipse cx="268.137" cy="169.834" rx="0.8506" ry="0.863189" fill="white"/>
<ellipse cx="297.165" cy="169.834" rx="0.8506" ry="0.863189" fill="white"/>
<ellipse cx="310.312" cy="176.504" rx="0.8506" ry="0.863189" fill="white"/>
<ellipse cx="323.456" cy="169.834" rx="0.8506" ry="0.863189" fill="white"/>
<ellipse cx="323.456" cy="188.732" rx="0.8506" ry="0.863189" fill="white"/>
<ellipse cx="333.862" cy="150.38" rx="0.8506" ry="0.863189" fill="white"/>
<ellipse cx="333.862" cy="130.37" rx="0.8506" ry="0.863189" fill="white"/>
<ellipse cx="310.859" cy="104.247" rx="0.8506" ry="0.863189" fill="white"/>
<ellipse cx="279.639" cy="185.397" rx="0.8506" ry="0.863189" fill="white"/>
<ellipse cx="304.834" cy="191.511" rx="0.8506" ry="0.863189" fill="white"/>
<ellipse cx="291.688" cy="205.962" rx="0.8506" ry="0.863189" fill="white"/>
<ellipse cx="269.78" cy="209.853" rx="0.8506" ry="0.863189" fill="white"/>
<ellipse cx="238.56" cy="242.647" rx="0.8506" ry="0.863189" fill="white"/>
<ellipse cx="219.39" cy="270.438" rx="0.8506" ry="0.863189" fill="white"/>
<ellipse cx="238.56" cy="284.889" rx="0.8506" ry="0.863189" fill="white"/>
<ellipse cx="258.278" cy="284.889" rx="0.8506" ry="0.863189" fill="white"/>
<ellipse cx="258.278" cy="308.234" rx="0.8506" ry="0.863189" fill="white"/>
<ellipse cx="232.535" cy="311.569" rx="0.8506" ry="0.863189" fill="white"/>
<ellipse cx="212.817" cy="301.564" rx="0.8506" ry="0.863189" fill="white"/>
<ellipse cx="210.079" cy="288.224" rx="0.8506" ry="0.863189" fill="white"/>
<ellipse cx="188.17" cy="280.999" rx="0.8506" ry="0.863189" fill="white"/>
<ellipse cx="174.478" cy="305.455" rx="0.8506" ry="0.863189" fill="white"/>
<ellipse cx="191.456" cy="301.008" rx="0.8506" ry="0.863189" fill="white"/>
<ellipse cx="159.688" cy="291.559" rx="0.8506" ry="0.863189" fill="white"/>
<ellipse cx="166.261" cy="277.108" rx="0.8506" ry="0.863189" fill="white"/>
<ellipse cx="136.137" cy="287.668" rx="0.8506" ry="0.863189" fill="white"/>
<ellipse cx="139.971" cy="308.234" rx="0.8506" ry="0.863189" fill="white"/>
<ellipse cx="159.141" cy="318.239" rx="0.8506" ry="0.863189" fill="white"/>
<ellipse cx="132.851" cy="324.909" rx="0.8506" ry="0.863189" fill="white"/>
<ellipse cx="155.855" cy="337.137" rx="0.8506" ry="0.863189" fill="white"/>
<ellipse cx="110.942" cy="330.467" rx="0.8506" ry="0.863189" fill="white"/>
<ellipse cx="179.954" cy="330.467" rx="0.8506" ry="0.863189" fill="white"/>
<ellipse cx="200.22" cy="321.574" rx="0.8506" ry="0.863189" fill="white"/>
<ellipse cx="200.22" cy="337.137" rx="0.8506" ry="0.863189" fill="white"/>
<ellipse cx="224.319" cy="327.132" rx="0.8506" ry="0.863189" fill="white"/>
<ellipse cx="229.249" cy="297.673" rx="0.8506" ry="0.863189" fill="white"/>
<ellipse cx="248.419" cy="323.241" rx="0.8506" ry="0.863189" fill="white"/>
<ellipse cx="273.066" cy="298.229" rx="0.8506" ry="0.863189" fill="white"/>
<ellipse cx="238.56" cy="270.438" rx="0.8506" ry="0.863189" fill="white"/>
<ellipse cx="225.962" cy="255.987" rx="0.8506" ry="0.863189" fill="white"/>
<ellipse cx="200.22" cy="267.103" rx="0.8506" ry="0.863189" fill="white"/>
<ellipse cx="254.991" cy="225.416" rx="0.8506" ry="0.863189" fill="white"/>
<ellipse cx="279.639" cy="225.416" rx="0.8506" ry="0.863189" fill="white"/>
<ellipse cx="264.851" cy="194.846" rx="0.8506" ry="0.863189" fill="white"/>
<ellipse cx="297.714" cy="237.089" rx="0.8506" ry="0.863189" fill="white"/>
<ellipse cx="307.024" cy="215.967" rx="0.8506" ry="0.863189" fill="white"/>
<ellipse cx="323.456" cy="213.188" rx="0.8506" ry="0.863189" fill="white"/>
<ellipse cx="323.456" cy="239.312" rx="0.8506" ry="0.863189" fill="white"/>
<ellipse cx="307.024" cy="255.987" rx="0.8506" ry="0.863189" fill="white"/>
<ellipse cx="281.282" cy="249.317" rx="0.8506" ry="0.863189" fill="white"/>
<ellipse cx="261.564" cy="242.647" rx="0.8506" ry="0.863189" fill="white"/>
<ellipse cx="248.419" cy="260.989" rx="0.8506" ry="0.863189" fill="white"/>
<ellipse cx="269.78" cy="267.103" rx="0.8506" ry="0.863189" fill="white"/>
<ellipse cx="292.236" cy="268.215" rx="0.8506" ry="0.863189" fill="white"/>
<ellipse cx="289.497" cy="288.224" rx="0.8506" ry="0.863189" fill="white"/>
<ellipse cx="333.862" cy="199.848" rx="0.8506" ry="0.863189" fill="white"/>
<ellipse cx="337.149" cy="178.727" rx="0.8506" ry="0.863189" fill="white"/>
<ellipse cx="282.925" cy="168.722" rx="0.8506" ry="0.863189" fill="white"/>
<ellipse cx="307.573" cy="153.715" rx="0.8506" ry="0.863189" fill="white"/>
<ellipse cx="264.851" cy="143.154" rx="0.8506" ry="0.863189" fill="white"/>
<ellipse cx="248.419" cy="42.5501" rx="0.8506" ry="0.863189" fill="white"/>
</svg>
