<svg width="32" height="32" viewBox="0 0 32 32" fill="none" xmlns="http://www.w3.org/2000/svg">
<path d="M25.3337 5.33337H6.66699C5.60613 5.33337 4.58871 5.7548 3.83857 6.50495C3.08842 7.25509 2.66699 8.27251 2.66699 9.33337V22.6667C2.66699 23.7276 3.08842 24.745 3.83857 25.4951C4.58871 26.2453 5.60613 26.6667 6.66699 26.6667H25.3337C26.3945 26.6667 27.4119 26.2453 28.1621 25.4951C28.9122 24.745 29.3337 23.7276 29.3337 22.6667V9.33337C29.3337 8.27251 28.9122 7.25509 28.1621 6.50495C27.4119 5.7548 26.3945 5.33337 25.3337 5.33337ZM24.787 8.00004L16.947 15.84C16.823 15.965 16.6756 16.0642 16.5131 16.1319C16.3506 16.1996 16.1763 16.2344 16.0003 16.2344C15.8243 16.2344 15.65 16.1996 15.4876 16.1319C15.3251 16.0642 15.1776 15.965 15.0537 15.84L7.21366 8.00004H24.787ZM26.667 22.6667C26.667 23.0203 26.5265 23.3595 26.2765 23.6095C26.0264 23.8596 25.6873 24 25.3337 24H6.66699C6.31337 24 5.97423 23.8596 5.72418 23.6095C5.47413 23.3595 5.33366 23.0203 5.33366 22.6667V9.88004L13.1737 17.72C13.9237 18.4691 14.9403 18.8899 16.0003 18.8899C17.0603 18.8899 18.077 18.4691 18.827 17.72L26.667 9.88004V22.6667Z" fill="white"/>
</svg>
