<svg width="96" height="96" viewBox="0 0 96 96" fill="none" xmlns="http://www.w3.org/2000/svg">
<rect x="8" y="23.2382" width="79.2381" height="9.33333" fill="#73737E" stroke="#73737E" stroke-width="2"/>
<path d="M11.0479 23.2018L47.6193 8L84.1907 23.2018H11.0479Z" stroke="#73737E" stroke-width="2"/>
<rect x="8" y="78.2858" width="79.2381" height="9.33333" stroke="#73737E" stroke-width="2"/>
<rect x="12.5713" y="72.1906" width="70.0952" height="6.09524" stroke="#73737E" stroke-width="2"/>
<path d="M19.0472 35.6191H24.3805L25.5233 69.1429H17.9043L19.0472 35.6191Z" stroke="#73737E" stroke-width="2"/>
<path d="M44.9524 35.6191H50.2858L51.4286 69.1429H43.8096L44.9524 35.6191Z" stroke="#73737E" stroke-width="2"/>
<path d="M70.8577 35.6191H76.191L77.3339 69.1429H69.7148L70.8577 35.6191Z" stroke="#73737E" stroke-width="2"/>
<rect x="67.4287" y="32.5715" width="12.1905" height="3.04762" stroke="#73737E" stroke-width="2"/>
<rect x="41.5244" y="32.5715" width="12.1905" height="3.04762" stroke="#73737E" stroke-width="2"/>
<rect x="15.6191" y="32.5715" width="12.1905" height="3.04762" stroke="#73737E" stroke-width="2"/>
<rect x="67.4287" y="69.1429" width="12.1905" height="3.04762" stroke="#73737E" stroke-width="2"/>
<rect x="41.5244" y="69.1429" width="12.1905" height="3.04762" stroke="#73737E" stroke-width="2"/>
<rect x="15.6191" y="69.1429" width="12.1905" height="3.04762" stroke="#73737E" stroke-width="2"/>
<circle cx="47.6189" cy="16.1428" r="3.04762" stroke="#73737E" stroke-width="2"/>
</svg>
