<svg width="648" height="179" viewBox="0 0 648 179" fill="none" xmlns="http://www.w3.org/2000/svg">
<ellipse cx="274.647" cy="1.65487" rx="1.63074" ry="1.65487" fill="#A5A9B0"/>
<ellipse cx="334.501" cy="38.951" rx="1.63074" ry="1.65487" fill="#A5A9B0"/>
<ellipse cx="340.801" cy="69.8536" rx="1.63074" ry="1.65487" fill="#A5A9B0"/>
<ellipse cx="364.952" cy="51.7384" rx="1.63074" ry="1.65487" fill="#A5A9B0"/>
<ellipse cx="248.395" cy="68.7879" rx="1.63074" ry="1.65487" fill="#A5A9B0"/>
<ellipse cx="364.952" cy="127.396" rx="1.63074" ry="1.65487" fill="#A5A9B0"/>
<ellipse cx="439.507" cy="168.955" rx="1.63074" ry="1.65487" fill="#A5A9B0"/>
<ellipse cx="218.994" cy="101.822" rx="1.63074" ry="1.65487" fill="#A5A9B0"/>
<ellipse cx="163.34" cy="108.215" rx="1.63074" ry="1.65487" fill="#A5A9B0"/>
<ellipse cx="192.742" cy="133.79" rx="1.63074" ry="1.65487" fill="#A5A9B0"/>
<ellipse cx="149.689" cy="148.708" rx="1.63074" ry="1.65487" fill="#A5A9B0"/>
<ellipse cx="206.392" cy="45.3446" rx="1.63074" ry="1.65487" fill="#A5A9B0"/>
<ellipse cx="149.689" cy="45.3446" rx="1.63074" ry="1.65487" fill="#A5A9B0"/>
<ellipse cx="155.99" cy="75.1815" rx="1.63074" ry="1.65487" fill="#A5A9B0"/>
<ellipse cx="119.238" cy="77.3128" rx="1.63074" ry="1.65487" fill="#A5A9B0"/>
<ellipse cx="131.838" cy="123.134" rx="1.63074" ry="1.65487" fill="#A5A9B0"/>
<ellipse cx="84.5858" cy="95.4278" rx="1.63074" ry="1.65487" fill="#A5A9B0"/>
<ellipse cx="71.9852" cy="127.396" rx="1.63074" ry="1.65487" fill="#A5A9B0"/>
<ellipse cx="71.9852" cy="168.955" rx="1.63074" ry="1.65487" fill="#A5A9B0"/>
<ellipse cx="106.637" cy="161.495" rx="1.63074" ry="1.65487" fill="#A5A9B0"/>
<ellipse cx="36.2831" cy="174.283" rx="1.63074" ry="1.65487" fill="#A5A9B0"/>
<ellipse cx="102.436" cy="133.79" rx="1.63074" ry="1.65487" fill="#A5A9B0"/>
<ellipse cx="305.099" cy="43.2135" rx="1.63074" ry="1.65487" fill="#A5A9B0"/>
<ellipse cx="305.099" cy="94.3624" rx="1.63074" ry="1.65487" fill="#A5A9B0"/>
<ellipse cx="181.191" cy="175.348" rx="1.63074" ry="1.65487" fill="#A5A9B0"/>
<ellipse cx="181.191" cy="26.1637" rx="1.63074" ry="1.65487" fill="#A5A9B0"/>
<ellipse cx="237.895" cy="38.951" rx="1.63074" ry="1.65487" fill="#A5A9B0"/>
<ellipse cx="231.595" cy="6.98287" rx="1.63074" ry="1.65487" fill="#A5A9B0"/>
<ellipse cx="193.792" cy="77.3126" rx="1.63074" ry="1.65487" fill="#A5A9B0"/>
<ellipse cx="242.095" cy="127.396" rx="1.63074" ry="1.65487" fill="#A5A9B0"/>
<ellipse cx="218.994" cy="156.167" rx="1.63074" ry="1.65487" fill="#A5A9B0"/>
<ellipse cx="291.448" cy="68.7879" rx="1.63074" ry="1.65487" fill="#A5A9B0"/>
<ellipse cx="367.053" cy="89.0343" rx="1.63074" ry="1.65487" fill="#A5A9B0"/>
<ellipse cx="433.206" cy="89.0344" rx="1.63074" ry="1.65487" fill="#A5A9B0"/>
<ellipse cx="430.056" cy="58.1319" rx="1.63074" ry="1.65487" fill="#A5A9B0"/>
<ellipse cx="433.206" cy="129.527" rx="1.63074" ry="1.65487" fill="#A5A9B0"/>
<ellipse cx="482.559" cy="129.527" rx="1.63074" ry="1.65487" fill="#A5A9B0"/>
<ellipse cx="463.658" cy="155.102" rx="1.63074" ry="1.65487" fill="#A5A9B0"/>
<ellipse cx="536.112" cy="175.348" rx="1.63074" ry="1.65487" fill="#A5A9B0"/>
<ellipse cx="514.061" cy="101.822" rx="1.63074" ry="1.65487" fill="#A5A9B0"/>
<ellipse cx="507.761" cy="142.315" rx="1.63074" ry="1.65487" fill="#A5A9B0"/>
<ellipse cx="557.114" cy="135.921" rx="1.63074" ry="1.65487" fill="#A5A9B0"/>
<ellipse cx="457.358" cy="108.215" rx="1.63074" ry="1.65487" fill="#A5A9B0"/>
<ellipse cx="463.658" cy="56.0006" rx="1.63074" ry="1.65487" fill="#A5A9B0"/>
<ellipse cx="396.454" cy="63.46" rx="1.63074" ry="1.65487" fill="#A5A9B0"/>
<ellipse cx="383.853" cy="32.5575" rx="1.63074" ry="1.65487" fill="#A5A9B0"/>
<ellipse cx="457.358" cy="19.7701" rx="1.63074" ry="1.65487" fill="#A5A9B0"/>
<ellipse cx="396.454" cy="108.215" rx="1.63074" ry="1.65487" fill="#A5A9B0"/>
<ellipse cx="402.755" cy="142.315" rx="1.63074" ry="1.65487" fill="#A5A9B0"/>
<ellipse cx="338.701" cy="101.822" rx="1.63074" ry="1.65487" fill="#A5A9B0"/>
<ellipse cx="322.95" cy="127.396" rx="1.63074" ry="1.65487" fill="#A5A9B0"/>
<ellipse cx="268.347" cy="95.4279" rx="1.63074" ry="1.65487" fill="#A5A9B0"/>
<ellipse cx="280.947" cy="129.527" rx="1.63074" ry="1.65487" fill="#A5A9B0"/>
<ellipse cx="274.647" cy="32.5575" rx="1.63074" ry="1.65487" fill="#A5A9B0"/>
<ellipse cx="321.9" cy="8.04843" rx="1.63074" ry="1.65487" fill="#A5A9B0"/>
<ellipse cx="367.052" cy="1.65487" rx="1.63074" ry="1.65487" fill="#A5A9B0"/>
<ellipse cx="409.055" cy="8.04843" rx="1.63074" ry="1.65487" fill="#A5A9B0"/>
<ellipse cx="420.605" cy="32.5575" rx="1.63074" ry="1.65487" fill="#A5A9B0"/>
<ellipse cx="495.16" cy="45.3446" rx="1.63074" ry="1.65487" fill="#A5A9B0"/>
<ellipse cx="526.662" cy="64.5255" rx="1.63074" ry="1.65487" fill="#A5A9B0"/>
<ellipse cx="550.813" cy="100.756" rx="1.63074" ry="1.65487" fill="#A5A9B0"/>
<ellipse cx="589.666" cy="143.38" rx="1.63074" ry="1.65487" fill="#A5A9B0"/>
<ellipse cx="571.814" cy="175.348" rx="1.63074" ry="1.65487" fill="#A5A9B0"/>
<ellipse cx="495.16" cy="168.955" rx="1.63074" ry="1.65487" fill="#A5A9B0"/>
<ellipse cx="476.259" cy="81.5753" rx="1.63074" ry="1.65487" fill="#A5A9B0"/>
</svg>
