<svg width="648" height="334" viewBox="0 0 648 334" fill="none" xmlns="http://www.w3.org/2000/svg">
<ellipse cx="274.647" cy="1.65487" rx="1.63074" ry="1.65487" fill="#A5A9B0"/>
<ellipse cx="334.501" cy="38.951" rx="1.63074" ry="1.65487" fill="#A5A9B0"/>
<ellipse cx="340.801" cy="69.8536" rx="1.63074" ry="1.65487" fill="#A5A9B0"/>
<ellipse cx="364.952" cy="51.7384" rx="1.63074" ry="1.65487" fill="#A5A9B0"/>
<ellipse cx="248.395" cy="68.7879" rx="1.63074" ry="1.65487" fill="#A5A9B0"/>
<ellipse cx="364.952" cy="127.396" rx="1.63074" ry="1.65487" fill="#A5A9B0"/>
<ellipse cx="439.507" cy="168.955" rx="1.63074" ry="1.65487" fill="#A5A9B0"/>
<ellipse cx="495.16" cy="235.022" rx="1.63074" ry="1.65487" fill="#A5A9B0"/>
<ellipse cx="218.994" cy="101.822" rx="1.63074" ry="1.65487" fill="#A5A9B0"/>
<ellipse cx="163.34" cy="108.215" rx="1.63074" ry="1.65487" fill="#A5A9B0"/>
<ellipse cx="192.742" cy="133.79" rx="1.63074" ry="1.65487" fill="#A5A9B0"/>
<ellipse cx="149.689" cy="148.708" rx="1.63074" ry="1.65487" fill="#A5A9B0"/>
<ellipse cx="206.392" cy="45.3446" rx="1.63074" ry="1.65487" fill="#A5A9B0"/>
<ellipse cx="149.689" cy="45.3446" rx="1.63074" ry="1.65487" fill="#A5A9B0"/>
<ellipse cx="155.99" cy="75.1815" rx="1.63074" ry="1.65487" fill="#A5A9B0"/>
<ellipse cx="119.238" cy="77.3128" rx="1.63074" ry="1.65487" fill="#A5A9B0"/>
<ellipse cx="131.838" cy="123.134" rx="1.63074" ry="1.65487" fill="#A5A9B0"/>
<ellipse cx="84.5858" cy="95.4278" rx="1.63074" ry="1.65487" fill="#A5A9B0"/>
<ellipse cx="71.9852" cy="127.396" rx="1.63074" ry="1.65487" fill="#A5A9B0"/>
<ellipse cx="71.9852" cy="168.955" rx="1.63074" ry="1.65487" fill="#A5A9B0"/>
<ellipse cx="106.637" cy="161.495" rx="1.63074" ry="1.65487" fill="#A5A9B0"/>
<ellipse cx="106.637" cy="199.857" rx="1.63074" ry="1.65487" fill="#A5A9B0"/>
<ellipse cx="65.6844" cy="209.448" rx="1.63074" ry="1.65487" fill="#A5A9B0"/>
<ellipse cx="36.2831" cy="174.283" rx="1.63074" ry="1.65487" fill="#A5A9B0"/>
<ellipse cx="14.2313" cy="228.629" rx="1.63074" ry="1.65487" fill="#A5A9B0"/>
<ellipse cx="78.285" cy="243.547" rx="1.63074" ry="1.65487" fill="#A5A9B0"/>
<ellipse cx="1.63074" cy="279.777" rx="1.63074" ry="1.65487" fill="#A5A9B0"/>
<ellipse cx="42.5829" cy="261.662" rx="1.63074" ry="1.65487" fill="#A5A9B0"/>
<ellipse cx="42.5829" cy="228.629" rx="1.63074" ry="1.65487" fill="#A5A9B0"/>
<ellipse cx="111.887" cy="237.153" rx="1.63074" ry="1.65487" fill="#A5A9B0"/>
<ellipse cx="102.436" cy="133.79" rx="1.63074" ry="1.65487" fill="#A5A9B0"/>
<ellipse cx="149.689" cy="241.416" rx="1.63074" ry="1.65487" fill="#A5A9B0"/>
<ellipse cx="97.1864" cy="274.449" rx="1.63074" ry="1.65487" fill="#A5A9B0"/>
<ellipse cx="29.9823" cy="307.483" rx="1.63074" ry="1.65487" fill="#A5A9B0"/>
<ellipse cx="65.6844" cy="301.089" rx="1.63074" ry="1.65487" fill="#A5A9B0"/>
<ellipse cx="111.887" cy="312.811" rx="1.63074" ry="1.65487" fill="#A5A9B0"/>
<ellipse cx="131.838" cy="280.843" rx="1.63074" ry="1.65487" fill="#A5A9B0"/>
<ellipse cx="305.099" cy="43.2135" rx="1.63074" ry="1.65487" fill="#A5A9B0"/>
<ellipse cx="305.099" cy="94.3624" rx="1.63074" ry="1.65487" fill="#A5A9B0"/>
<ellipse cx="149.689" cy="193.463" rx="1.63074" ry="1.65487" fill="#A5A9B0"/>
<ellipse cx="181.191" cy="175.348" rx="1.63074" ry="1.65487" fill="#A5A9B0"/>
<ellipse cx="181.191" cy="26.1637" rx="1.63074" ry="1.65487" fill="#A5A9B0"/>
<ellipse cx="237.894" cy="38.951" rx="1.63074" ry="1.65487" fill="#A5A9B0"/>
<ellipse cx="231.595" cy="6.98287" rx="1.63074" ry="1.65487" fill="#A5A9B0"/>
<ellipse cx="193.792" cy="77.3126" rx="1.63074" ry="1.65487" fill="#A5A9B0"/>
<ellipse cx="242.096" cy="127.396" rx="1.63074" ry="1.65487" fill="#A5A9B0"/>
<ellipse cx="218.994" cy="156.167" rx="1.63074" ry="1.65487" fill="#A5A9B0"/>
<ellipse cx="291.448" cy="68.7879" rx="1.63074" ry="1.65487" fill="#A5A9B0"/>
<ellipse cx="367.053" cy="89.0343" rx="1.63074" ry="1.65487" fill="#A5A9B0"/>
<ellipse cx="433.207" cy="89.0344" rx="1.63074" ry="1.65487" fill="#A5A9B0"/>
<ellipse cx="430.057" cy="58.1319" rx="1.63074" ry="1.65487" fill="#A5A9B0"/>
<ellipse cx="433.207" cy="129.527" rx="1.63074" ry="1.65487" fill="#A5A9B0"/>
<ellipse cx="482.559" cy="129.527" rx="1.63074" ry="1.65487" fill="#A5A9B0"/>
<ellipse cx="463.658" cy="155.102" rx="1.63074" ry="1.65487" fill="#A5A9B0"/>
<ellipse cx="536.112" cy="175.348" rx="1.63074" ry="1.65487" fill="#A5A9B0"/>
<ellipse cx="529.812" cy="243.547" rx="1.63074" ry="1.65487" fill="#A5A9B0"/>
<ellipse cx="577.064" cy="222.235" rx="1.63074" ry="1.65487" fill="#A5A9B0"/>
<ellipse cx="507.761" cy="209.448" rx="1.63074" ry="1.65487" fill="#A5A9B0"/>
<ellipse cx="514.06" cy="101.822" rx="1.63074" ry="1.65487" fill="#A5A9B0"/>
<ellipse cx="507.761" cy="142.315" rx="1.63074" ry="1.65487" fill="#A5A9B0"/>
<ellipse cx="557.114" cy="135.921" rx="1.63074" ry="1.65487" fill="#A5A9B0"/>
<ellipse cx="457.357" cy="108.215" rx="1.63074" ry="1.65487" fill="#A5A9B0"/>
<ellipse cx="463.658" cy="56.0006" rx="1.63074" ry="1.65487" fill="#A5A9B0"/>
<ellipse cx="396.454" cy="63.46" rx="1.63074" ry="1.65487" fill="#A5A9B0"/>
<ellipse cx="383.853" cy="32.5575" rx="1.63074" ry="1.65487" fill="#A5A9B0"/>
<ellipse cx="457.357" cy="19.7701" rx="1.63074" ry="1.65487" fill="#A5A9B0"/>
<ellipse cx="396.454" cy="108.215" rx="1.63074" ry="1.65487" fill="#A5A9B0"/>
<ellipse cx="402.755" cy="142.315" rx="1.63074" ry="1.65487" fill="#A5A9B0"/>
<ellipse cx="338.701" cy="101.822" rx="1.63074" ry="1.65487" fill="#A5A9B0"/>
<ellipse cx="322.95" cy="127.396" rx="1.63074" ry="1.65487" fill="#A5A9B0"/>
<ellipse cx="268.347" cy="95.4279" rx="1.63074" ry="1.65487" fill="#A5A9B0"/>
<ellipse cx="280.947" cy="129.527" rx="1.63074" ry="1.65487" fill="#A5A9B0"/>
<ellipse cx="274.647" cy="32.5575" rx="1.63074" ry="1.65487" fill="#A5A9B0"/>
<ellipse cx="321.9" cy="8.04843" rx="1.63074" ry="1.65487" fill="#A5A9B0"/>
<ellipse cx="367.053" cy="1.65487" rx="1.63074" ry="1.65487" fill="#A5A9B0"/>
<ellipse cx="409.055" cy="8.04843" rx="1.63074" ry="1.65487" fill="#A5A9B0"/>
<ellipse cx="420.605" cy="32.5575" rx="1.63074" ry="1.65487" fill="#A5A9B0"/>
<ellipse cx="495.16" cy="45.3446" rx="1.63074" ry="1.65487" fill="#A5A9B0"/>
<ellipse cx="526.662" cy="64.5255" rx="1.63074" ry="1.65487" fill="#A5A9B0"/>
<ellipse cx="550.813" cy="100.756" rx="1.63074" ry="1.65487" fill="#A5A9B0"/>
<ellipse cx="589.666" cy="143.38" rx="1.63074" ry="1.65487" fill="#A5A9B0"/>
<ellipse cx="571.814" cy="175.348" rx="1.63074" ry="1.65487" fill="#A5A9B0"/>
<ellipse cx="542.413" cy="209.448" rx="1.63074" ry="1.65487" fill="#A5A9B0"/>
<ellipse cx="495.16" cy="168.955" rx="1.63074" ry="1.65487" fill="#A5A9B0"/>
<ellipse cx="469.959" cy="196.66" rx="1.63074" ry="1.65487" fill="#A5A9B0"/>
<ellipse cx="620.117" cy="193.463" rx="1.63074" ry="1.65487" fill="#A5A9B0"/>
<ellipse cx="613.817" cy="237.153" rx="1.63074" ry="1.65487" fill="#A5A9B0"/>
<ellipse cx="569.715" cy="261.662" rx="1.63074" ry="1.65487" fill="#A5A9B0"/>
<ellipse cx="607.516" cy="273.384" rx="1.63074" ry="1.65487" fill="#A5A9B0"/>
<ellipse cx="539.263" cy="286.171" rx="1.63074" ry="1.65487" fill="#A5A9B0"/>
<ellipse cx="514.06" cy="325.598" rx="1.63074" ry="1.65487" fill="#A5A9B0"/>
<ellipse cx="569.715" cy="325.598" rx="1.63074" ry="1.65487" fill="#A5A9B0"/>
<ellipse cx="620.117" cy="325.598" rx="1.63074" ry="1.65487" fill="#A5A9B0"/>
<ellipse cx="640.068" cy="288.302" rx="1.63074" ry="1.65487" fill="#A5A9B0"/>
<ellipse cx="640.068" cy="249.941" rx="1.63074" ry="1.65487" fill="#A5A9B0"/>
<ellipse cx="595.967" cy="199.857" rx="1.63074" ry="1.65487" fill="#A5A9B0"/>
<ellipse cx="542.413" cy="323.467" rx="1.63074" ry="1.65487" fill="#A5A9B0"/>
<ellipse cx="589.666" cy="294.696" rx="1.63074" ry="1.65487" fill="#A5A9B0"/>
<ellipse cx="507.761" cy="274.449" rx="1.63074" ry="1.65487" fill="#A5A9B0"/>
<ellipse cx="476.259" cy="81.5753" rx="1.63074" ry="1.65487" fill="#A5A9B0"/>
</svg>
