<svg width="22" height="22" viewBox="0 0 22 22" fill="none" xmlns="http://www.w3.org/2000/svg">
<path d="M11 0.217407C8.07169 0.217407 7.70419 0.230212 6.55408 0.282552C5.40622 0.335118 4.62271 0.516849 3.93713 0.783494C3.22797 1.0589 2.62641 1.42731 2.0271 2.02686C1.42733 2.6262 1.05894 3.22778 0.782642 3.93673C0.515331 4.62255 0.33338 5.40631 0.281715 6.55376C0.230275 7.70391 0.216797 8.07164 0.216797 11C0.216797 13.9284 0.229826 14.2948 0.28194 15.4449C0.334728 16.5928 0.516455 17.3764 0.782867 18.0619C1.05849 18.7711 1.42688 19.3727 2.02642 19.972C2.62551 20.5718 3.22708 20.9411 3.93579 21.2165C4.62181 21.4832 5.40555 21.6649 6.55319 21.7175C7.7033 21.7698 8.07057 21.7826 10.9986 21.7826C13.9271 21.7826 14.2935 21.7698 15.4436 21.7175C16.5915 21.6649 17.3759 21.4832 18.0619 21.2165C18.7709 20.9411 19.3715 20.5718 19.9706 19.972C20.5704 19.3727 20.9388 18.7711 21.2151 18.0622C21.4801 17.3764 21.6621 16.5926 21.716 15.4451C21.7677 14.295 21.7811 13.9284 21.7811 11C21.7811 8.07164 21.7677 7.70413 21.716 6.55399C21.6621 5.40609 21.4801 4.62255 21.2151 3.93696C20.9388 3.22778 20.5704 2.6262 19.9706 2.02686C19.3708 1.42708 18.7711 1.05868 18.0613 0.783494C17.3739 0.516849 16.5899 0.335118 15.4421 0.282552C14.2919 0.230212 13.9258 0.217407 10.9966 0.217407H11ZM10.0327 2.16052C10.3198 2.16007 10.6401 2.16052 11 2.16052C13.8788 2.16052 14.2201 2.17086 15.3569 2.22252C16.4082 2.2706 16.9788 2.44626 17.3588 2.59385C17.862 2.78928 18.2207 3.02291 18.5979 3.4003C18.9753 3.77769 19.2089 4.13711 19.4048 4.6403C19.5524 5.01994 19.7282 5.59052 19.7761 6.64182C19.8277 7.77849 19.839 8.11994 19.839 10.9975C19.839 13.8752 19.8277 14.2166 19.7761 15.3533C19.728 16.4046 19.5524 16.9752 19.4048 17.3548C19.2093 17.858 18.9753 18.2163 18.5979 18.5934C18.2205 18.9708 17.8622 19.2045 17.3588 19.3999C16.9792 19.5482 16.4082 19.7234 15.3569 19.7714C14.2203 19.8231 13.8788 19.8343 11 19.8343C8.12088 19.8343 7.77967 19.8231 6.64304 19.7714C5.59177 19.7229 5.0212 19.5473 4.6409 19.3997C4.13773 19.2042 3.77832 18.9706 3.40094 18.5932C3.02356 18.2158 2.78994 17.8573 2.59407 17.3539C2.44648 16.9743 2.2706 16.4037 2.22275 15.3524C2.17109 14.2157 2.16075 13.8743 2.16075 10.9948C2.16075 8.11544 2.17109 7.77579 2.22275 6.63912C2.27082 5.58782 2.44648 5.01724 2.59407 4.63715C2.78949 4.13396 3.02356 3.77454 3.40094 3.39715C3.77832 3.01976 4.13773 2.78614 4.6409 2.59025C5.02098 2.44199 5.59177 2.26678 6.64304 2.21848C7.6377 2.17355 8.02317 2.16007 10.0327 2.15783V2.16052ZM16.7555 3.95089C16.0411 3.95089 15.4616 4.52978 15.4616 5.24435C15.4616 5.9587 16.0411 6.53826 16.7555 6.53826C17.4698 6.53826 18.0493 5.9587 18.0493 5.24435C18.0493 4.53 17.4698 3.95044 16.7555 3.95044V3.95089ZM11 5.4627C7.94208 5.4627 5.46283 7.94202 5.46283 11C5.46283 14.058 7.94208 16.5362 11 16.5362C14.0579 16.5362 16.5362 14.058 16.5362 11C16.5362 7.94202 14.0577 5.4627 10.9998 5.4627H11ZM11 7.40581C12.9848 7.40581 14.5941 9.01489 14.5941 11C14.5941 12.9849 12.9848 14.5942 11 14.5942C9.01492 14.5942 7.40588 12.9849 7.40588 11C7.40588 9.01489 9.01492 7.40581 11 7.40581Z" fill="#242932"/>
</svg>
