<svg width="27" height="22" viewBox="0 0 27 22" fill="none" xmlns="http://www.w3.org/2000/svg">
<g clip-path="url(#clip0_463_5407)">
<path d="M25.6751 20.5799C25.733 20.5804 25.7904 20.5696 25.8438 20.5481C25.8972 20.5265 25.9453 20.4947 25.9853 20.4546C26.0253 20.4146 26.0562 20.3671 26.0762 20.3151C26.0962 20.2631 26.1047 20.2078 26.1014 20.1525C26.1014 19.8494 25.9101 19.7046 25.5175 19.7046H24.8833V21.2915H25.1219V20.5997H25.415L25.4217 20.6082L25.8766 21.2915H26.1317L25.6423 20.5842L25.6751 20.5799ZM25.3992 20.4209H25.1225V19.8844H25.4731C25.6543 19.8844 25.8607 19.9127 25.8607 20.1394C25.8607 20.4 25.6518 20.4209 25.3977 20.4209" fill="#73737E"/>
<path d="M19.4516 18.5908H16.0689V13.5278C16.0689 12.3205 16.0463 10.7663 14.3095 10.7663C12.5476 10.7663 12.2781 12.0817 12.2781 13.4399V18.5905H8.89529V8.17885H12.1427V9.60171H12.1882C12.5132 9.07063 12.9828 8.63375 13.5471 8.33758C14.1113 8.04141 14.749 7.89705 15.3923 7.91987C18.8209 7.91987 19.453 10.0752 19.453 12.8792L19.4516 18.5908ZM5.07843 6.75565C4.69017 6.75571 4.31061 6.64574 3.98775 6.43964C3.66489 6.23354 3.41324 5.94057 3.2646 5.59777C3.11595 5.25497 3.077 4.87775 3.15267 4.51379C3.22835 4.14984 3.41526 3.81551 3.68975 3.55308C3.96424 3.29065 4.31399 3.1119 4.69477 3.03944C5.07555 2.96698 5.47025 3.00407 5.82898 3.14601C6.18771 3.28795 6.49434 3.52837 6.7101 3.83687C6.92586 4.14536 7.04106 4.50808 7.04113 4.87915C7.04118 5.12553 6.99044 5.36951 6.89183 5.59715C6.79322 5.82479 6.64868 6.03164 6.46642 6.20589C6.28417 6.38014 6.06778 6.51837 5.82962 6.6127C5.59147 6.70703 5.33622 6.7556 5.07843 6.75565ZM6.7698 18.5908H3.38353V8.17885H6.7698V18.5908ZM21.138 0.000998288H1.68371C1.24215 -0.00376413 0.816654 0.159212 0.500759 0.454115C0.184865 0.749017 0.00441242 1.15172 -0.000976562 1.57373V20.2441C0.00422798 20.6663 0.184574 21.0693 0.500458 21.3645C0.816342 21.6597 1.24193 21.823 1.68371 21.8185H21.138C21.5807 21.8238 22.0075 21.6609 22.3246 21.3657C22.6417 21.0705 22.8233 20.6671 22.8294 20.2441V1.57238C22.8231 1.14953 22.6414 0.746375 22.3243 0.45148C22.0071 0.156585 21.5805 -0.00592617 21.138 -0.000349347" fill="#73737E"/>
<path d="M25.428 18.9976C25.0165 19.0013 24.6232 19.1607 24.3343 19.4409C24.0454 19.721 23.8843 20.0992 23.8862 20.4925C23.8882 20.8859 24.0531 21.2625 24.3449 21.54C24.6366 21.8174 25.0314 21.9732 25.443 21.9732C25.8546 21.9732 26.2494 21.8174 26.5412 21.54C26.8329 21.2625 26.9978 20.8859 26.9998 20.4925C27.0017 20.0992 26.8407 19.721 26.5517 19.4409C26.2628 19.1607 25.8695 19.0013 25.458 18.9976H25.428ZM25.428 21.8029C25.1581 21.8072 24.8929 21.7349 24.6659 21.5951C24.439 21.4553 24.2605 21.2544 24.153 21.0177C24.0456 20.7809 24.014 20.5191 24.0622 20.2652C24.1105 20.0113 24.2364 19.7768 24.4241 19.5914C24.6118 19.4059 24.8529 19.2778 25.1167 19.2232C25.3806 19.1687 25.6555 19.1901 25.9067 19.2849C26.1578 19.3797 26.3738 19.5435 26.5276 19.7556C26.6813 19.9677 26.7657 20.2187 26.7702 20.4767C26.7702 20.4841 26.7702 20.4911 26.7702 20.4986C26.7778 20.837 26.6444 21.1645 26.3993 21.4089C26.1543 21.6534 25.8177 21.7949 25.4636 21.8022H25.4284" fill="#73737E"/>
</g>
<defs>
<clipPath id="clip0_463_5407">
<rect width="27" height="22" fill="white"/>
</clipPath>
</defs>
</svg>
