<svg width="97" height="96" viewBox="0 0 97 96" fill="none" xmlns="http://www.w3.org/2000/svg">
<path d="M33.3927 56.639H37.7781V39.361H33.6096V49.3476L27.2243 39.361H22.333V56.639H26.5015V45.8583L33.3927 56.639Z" fill="#73737E"/>
<path d="M56.5061 47.0134H47.4704V50.5989H51.6389C51.1329 52.0428 49.904 53.1497 47.9282 53.1497C44.7958 53.1497 43.3742 50.9118 43.3742 48.0241C43.3742 44.631 45.1813 43.0668 47.4222 43.0668C49.1811 43.0668 50.4582 44.0535 50.8919 45.377H56.2892C55.0845 41.5027 51.8798 39 47.5427 39C42.4586 39 38.6997 42.8021 38.6997 47.9037C38.6997 53.2941 42.6513 57 47.6872 57C53.4219 57 57.1326 52.8369 56.5061 47.0134Z" fill="#73737E"/>
<path d="M74.333 47.9759C74.333 42.7299 70.4055 39 65.3937 39C60.406 39 56.4784 42.7299 56.4784 47.9759C56.4784 53.2219 60.406 57 65.3937 57C70.4055 57 74.333 53.2219 74.333 47.9759ZM61.1529 47.9759C61.1529 45.2567 62.6709 43.0668 65.3937 43.0668C68.1164 43.0668 69.6344 45.2567 69.6344 47.9759C69.6344 50.6952 68.1164 52.9332 65.3937 52.9332C62.6709 52.9332 61.1529 50.6952 61.1529 47.9759Z" fill="#73737E"/>
<rect x="7.33301" y="24" width="82" height="48" rx="7" stroke="#73737E" stroke-width="2"/>
</svg>
