<svg width="97" height="96" viewBox="0 0 97 96" fill="none" xmlns="http://www.w3.org/2000/svg">
<path d="M80.8178 48.4298L80.2471 49.251L80.8178 48.4298ZM83.3332 50.1781L82.7625 50.9992L83.3332 50.1781ZM87.5802 60.2144V64.0417H89.5802V60.2144H87.5802ZM85.5246 66.0973H53.4413V68.0973H85.5246V66.0973ZM51.3857 64.0417V60.2144H49.3857V64.0417H51.3857ZM56.2034 50.9992L58.7189 49.251L57.5775 47.6087L55.062 49.3569L56.2034 50.9992ZM80.2471 49.251L82.7625 50.9992L83.9039 49.3569L81.3885 47.6087L80.2471 49.251ZM58.7189 49.251C65.1902 44.7534 73.7757 44.7534 80.2471 49.251L81.3885 47.6087C74.2309 42.6342 64.735 42.6341 57.5775 47.6087L58.7189 49.251ZM53.4413 66.0973C52.306 66.0973 51.3857 65.177 51.3857 64.0417H49.3857C49.3857 66.2815 51.2015 68.0973 53.4413 68.0973V66.0973ZM87.5802 64.0417C87.5802 65.177 86.6599 66.0973 85.5246 66.0973V68.0973C87.7645 68.0973 89.5802 66.2815 89.5802 64.0417H87.5802ZM89.5802 60.2144C89.5802 55.8841 87.4598 51.8282 83.9039 49.3569L82.7625 50.9992C85.7805 53.0967 87.5802 56.5391 87.5802 60.2144H89.5802ZM51.3857 60.2144C51.3857 56.5391 53.1854 53.0967 56.2034 50.9992L55.062 49.3569C51.5061 51.8282 49.3857 55.8841 49.3857 60.2144H51.3857Z" fill="#73737E"/>
<path d="M39.1859 48.4298L38.6152 49.251L39.1859 48.4298ZM41.7014 50.1781L41.1307 50.9992L41.7014 50.1781ZM45.9484 60.2144V64.0417H47.9484V60.2144H45.9484ZM43.8928 66.0973H11.8095V68.0973H43.8928V66.0973ZM9.75391 64.0417V60.2144H7.75391V64.0417H9.75391ZM14.5716 50.9992L17.087 49.251L15.9456 47.6087L13.4302 49.3569L14.5716 50.9992ZM38.6152 49.251L41.1307 50.9992L42.2721 49.3569L39.7566 47.6087L38.6152 49.251ZM17.087 49.251C23.5584 44.7534 32.1439 44.7534 38.6152 49.251L39.7566 47.6087C32.5991 42.6342 23.1032 42.6341 15.9456 47.6087L17.087 49.251ZM11.8095 66.0973C10.6742 66.0973 9.75391 65.177 9.75391 64.0417H7.75391C7.75391 66.2815 9.56964 68.0973 11.8095 68.0973V66.0973ZM45.9484 64.0417C45.9484 65.177 45.028 66.0973 43.8928 66.0973V68.0973C46.1326 68.0973 47.9484 66.2815 47.9484 64.0417H45.9484ZM47.9484 60.2144C47.9484 55.8841 45.828 51.8282 42.2721 49.3569L41.1307 50.9992C44.1487 53.0967 45.9484 56.5391 45.9484 60.2144H47.9484ZM9.75391 60.2144C9.75391 56.5391 11.5536 53.0967 14.5716 50.9992L13.4302 49.3569C9.8743 51.8282 7.75391 55.8841 7.75391 60.2144H9.75391Z" fill="#73737E"/>
<path d="M26.1318 64.8204C26.1318 60.805 28.1042 57.0457 31.4081 54.7638L37.3794 50.6395C44.1728 45.9475 53.1604 45.9475 59.9537 50.6395L65.925 54.7638C69.229 57.0457 71.2013 60.805 71.2013 64.8204V70.9167C71.2013 72.6042 69.8333 73.9722 68.1457 73.9722H29.1874C27.4999 73.9722 26.1318 72.6042 26.1318 70.9167V64.8204Z" fill="#EAEAEA"/>
<path d="M59.9537 50.6395L60.522 49.8167L59.9537 50.6395ZM65.925 54.7638L66.4933 53.9409L65.925 54.7638ZM31.4081 54.7638L30.8398 53.9409L31.4081 54.7638ZM70.2013 64.8204V70.9167H72.2013V64.8204H70.2013ZM68.1457 72.9722H29.1874V74.9722H68.1457V72.9722ZM27.1318 70.9167V64.8204H25.1318V70.9167H27.1318ZM31.9764 55.5866L37.9477 51.4623L36.8111 49.8167L30.8398 53.9409L31.9764 55.5866ZM59.3854 51.4623L65.3567 55.5866L66.4933 53.9409L60.522 49.8167L59.3854 51.4623ZM37.9477 51.4623C44.399 47.0066 52.9341 47.0066 59.3854 51.4623L60.522 49.8167C53.3866 44.8885 43.9465 44.8885 36.8111 49.8167L37.9477 51.4623ZM29.1874 72.9722C28.0521 72.9722 27.1318 72.0519 27.1318 70.9167H25.1318C25.1318 73.1565 26.9476 74.9722 29.1874 74.9722V72.9722ZM70.2013 70.9167C70.2013 72.0519 69.281 72.9722 68.1457 72.9722V74.9722C70.3855 74.9722 72.2013 73.1565 72.2013 70.9167H70.2013ZM72.2013 64.8204C72.2013 60.4765 70.0676 56.4096 66.4933 53.9409L65.3567 55.5866C68.3903 57.6819 70.2013 61.1336 70.2013 64.8204H72.2013ZM27.1318 64.8204C27.1318 61.1336 28.9428 57.6819 31.9764 55.5866L30.8398 53.9409C27.2655 56.4096 25.1318 60.4765 25.1318 64.8204H27.1318Z" fill="#73737E"/>
<ellipse cx="48.667" cy="32.4358" rx="10.3125" ry="10.408" stroke="#73737E" stroke-width="2"/>
<circle cx="69.3875" cy="32.4358" r="8.68924" stroke="#73737E" stroke-width="2"/>
<circle cx="27.947" cy="32.4358" r="8.68924" stroke="#73737E" stroke-width="2"/>
</svg>
