<svg width="343" height="317" viewBox="0 0 343 317" fill="none" xmlns="http://www.w3.org/2000/svg">
<ellipse cx="1.63074" cy="5.25448" rx="1.63074" ry="1.65487" fill="#A5A9B0"/>
<ellipse cx="74.0851" cy="5.25448" rx="1.63074" ry="1.65487" fill="#A5A9B0"/>
<ellipse cx="29.9823" cy="18.0416" rx="1.63074" ry="1.65487" fill="#A5A9B0"/>
<ellipse cx="65.6847" cy="52.141" rx="1.63074" ry="1.65487" fill="#A5A9B0"/>
<ellipse cx="33.1324" cy="63.8626" rx="1.63074" ry="1.65487" fill="#A5A9B0"/>
<ellipse cx="89.8361" cy="153.373" rx="1.63074" ry="1.65487" fill="#A5A9B0"/>
<ellipse cx="84.5856" cy="215.178" rx="1.63074" ry="1.65487" fill="#A5A9B0"/>
<ellipse cx="115.037" cy="188.538" rx="1.63074" ry="1.65487" fill="#A5A9B0"/>
<ellipse cx="138.139" cy="153.373" rx="1.63074" ry="1.65487" fill="#A5A9B0"/>
<ellipse cx="187.492" cy="153.373" rx="1.63074" ry="1.65487" fill="#A5A9B0"/>
<ellipse cx="155.99" cy="182.145" rx="1.63074" ry="1.65487" fill="#A5A9B0"/>
<ellipse cx="157.04" cy="221.572" rx="1.63074" ry="1.65487" fill="#A5A9B0"/>
<ellipse cx="121.338" cy="253.54" rx="1.63074" ry="1.65487" fill="#A5A9B0"/>
<ellipse cx="111.887" cy="227.966" rx="1.63074" ry="1.65487" fill="#A5A9B0"/>
<ellipse cx="149.689" cy="266.327" rx="1.63074" ry="1.65487" fill="#A5A9B0"/>
<ellipse cx="192.742" cy="234.359" rx="1.63074" ry="1.65487" fill="#A5A9B0"/>
<ellipse cx="192.742" cy="194.932" rx="1.63074" ry="1.65487" fill="#A5A9B0"/>
<ellipse cx="268.347" cy="182.145" rx="1.63074" ry="1.65487" fill="#A5A9B0"/>
<ellipse cx="225.294" cy="182.145" rx="1.63074" ry="1.65487" fill="#A5A9B0"/>
<ellipse cx="231.595" cy="221.572" rx="1.63074" ry="1.65487" fill="#A5A9B0"/>
<ellipse cx="193.792" cy="275.918" rx="1.63074" ry="1.65487" fill="#A5A9B0"/>
<ellipse cx="231.595" cy="260.999" rx="1.63074" ry="1.65487" fill="#A5A9B0"/>
<ellipse cx="53.0839" cy="94.7652" rx="1.63074" ry="1.65487" fill="#A5A9B0"/>
<ellipse cx="90.8859" cy="76.65" rx="1.63074" ry="1.65487" fill="#A5A9B0"/>
<ellipse cx="102.437" cy="29.7633" rx="1.63074" ry="1.65487" fill="#A5A9B0"/>
<ellipse cx="131.838" cy="11.648" rx="1.63074" ry="1.65487" fill="#A5A9B0"/>
<ellipse cx="144.439" cy="76.65" rx="1.63074" ry="1.65487" fill="#A5A9B0"/>
<ellipse cx="115.037" cy="94.7652" rx="1.63074" ry="1.65487" fill="#A5A9B0"/>
<ellipse cx="155.99" cy="117.143" rx="1.63074" ry="1.65487" fill="#A5A9B0"/>
<ellipse cx="39.433" cy="140.586" rx="1.63074" ry="1.65487" fill="#A5A9B0"/>
<ellipse cx="1.63074" cy="52.141" rx="1.63074" ry="1.65487" fill="#A5A9B0"/>
<ellipse cx="119.238" cy="52.141" rx="1.63074" ry="1.65487" fill="#A5A9B0"/>
<ellipse cx="118.187" cy="127.799" rx="1.63074" ry="1.65487" fill="#A5A9B0"/>
<ellipse cx="71.9852" cy="121.405" rx="1.63074" ry="1.65487" fill="#A5A9B0"/>
<ellipse cx="71.9852" cy="182.145" rx="1.63074" ry="1.65487" fill="#A5A9B0"/>
<ellipse cx="17.3815" cy="101.159" rx="1.63074" ry="1.65487" fill="#A5A9B0"/>
<ellipse cx="334.501" cy="254.606" rx="1.63074" ry="1.65487" fill="#A5A9B0"/>
<ellipse cx="306.149" cy="227.966" rx="1.63074" ry="1.65487" fill="#A5A9B0"/>
<ellipse cx="318.749" cy="200.26" rx="1.63074" ry="1.65487" fill="#A5A9B0"/>
<ellipse cx="260.996" cy="220.506" rx="1.63074" ry="1.65487" fill="#A5A9B0"/>
<ellipse cx="268.347" cy="259.934" rx="1.63074" ry="1.65487" fill="#A5A9B0"/>
<ellipse cx="305.099" cy="279.115" rx="1.63074" ry="1.65487" fill="#A5A9B0"/>
<ellipse cx="254.696" cy="291.902" rx="1.63074" ry="1.65487" fill="#A5A9B0"/>
<ellipse cx="298.798" cy="315.345" rx="1.63074" ry="1.65487" fill="#A5A9B0"/>
<ellipse cx="212.693" cy="302.558" rx="1.63074" ry="1.65487" fill="#A5A9B0"/>
</svg>
