<svg width="96" height="96" viewBox="0 0 96 96" fill="none" xmlns="http://www.w3.org/2000/svg">
<path fill-rule="evenodd" clip-rule="evenodd" d="M50.2858 41.9048C59.1223 41.9048 66.2858 34.7413 66.2858 25.9048C66.2858 17.0682 59.1223 9.90475 50.2858 9.90475C41.4492 9.90475 34.2858 17.0682 34.2858 25.9048C34.2858 34.7413 41.4492 41.9048 50.2858 41.9048ZM66.2857 26.6667H87.619V41.9048V57.1429V72.381V87.6191H8.38095V72.381H26.6667V57.1429H51.0476V41.9048H66.2857V26.6667Z" fill="#303641"/>
<path d="M87.619 26.6667H88.619V25.6667H87.619V26.6667ZM66.2857 26.6667V25.6667H65.2857V26.6667H66.2857ZM87.619 87.6191V88.6191H88.619V87.6191H87.619ZM8.38095 87.6191H7.38095V88.6191H8.38095V87.6191ZM8.38095 72.381V71.381H7.38095V72.381H8.38095ZM26.6667 72.381V73.381H27.6667V72.381H26.6667ZM26.6667 57.1429V56.1429H25.6667V57.1429H26.6667ZM51.0476 57.1429V58.1429H52.0476V57.1429H51.0476ZM51.0476 41.9048V40.9048H50.0476V41.9048H51.0476ZM66.2857 41.9048V42.9048H67.2857V41.9048H66.2857ZM65.2858 25.9048C65.2858 34.189 58.57 40.9048 50.2858 40.9048V42.9048C59.6746 42.9048 67.2858 35.2936 67.2858 25.9048H65.2858ZM50.2858 10.9048C58.57 10.9048 65.2858 17.6205 65.2858 25.9048H67.2858C67.2858 16.5159 59.6746 8.90475 50.2858 8.90475V10.9048ZM35.2858 25.9048C35.2858 17.6205 42.0015 10.9048 50.2858 10.9048V8.90475C40.8969 8.90475 33.2858 16.5159 33.2858 25.9048H35.2858ZM50.2858 40.9048C42.0015 40.9048 35.2858 34.189 35.2858 25.9048H33.2858C33.2858 35.2936 40.8969 42.9048 50.2858 42.9048V40.9048ZM87.619 25.6667H66.2857V27.6667H87.619V25.6667ZM88.619 41.9048V26.6667H86.619V41.9048H88.619ZM88.619 57.1429V41.9048H86.619V57.1429H88.619ZM88.619 72.381V57.1429H86.619V72.381H88.619ZM88.619 87.6191V72.381H86.619V87.6191H88.619ZM8.38095 88.6191H87.619V86.6191H8.38095V88.6191ZM7.38095 72.381V87.6191H9.38095V72.381H7.38095ZM26.6667 71.381H8.38095V73.381H26.6667V71.381ZM25.6667 57.1429V72.381H27.6667V57.1429H25.6667ZM51.0476 56.1429H26.6667V58.1429H51.0476V56.1429ZM50.0476 41.9048V57.1429H52.0476V41.9048H50.0476ZM66.2857 40.9048H51.0476V42.9048H66.2857V40.9048ZM65.2857 26.6667V41.9048H67.2857V26.6667H65.2857Z" fill="#B7BAC0"/>
</svg>
