<svg width="97" height="93" viewBox="0 0 97 93" fill="none" xmlns="http://www.w3.org/2000/svg">
<path d="M46.9762 8.91417C47.7642 7.69528 49.5474 7.69528 50.3354 8.91417L63.2884 28.9502C63.5583 29.3676 63.9739 29.6696 64.4543 29.7973L87.5124 35.9249C88.9152 36.2977 89.4662 37.9935 88.5505 39.1196L73.4978 57.6302C73.1842 58.0158 73.0254 58.5044 73.0525 59.0008L74.3501 82.8239C74.429 84.2732 72.9864 85.3213 71.6325 84.7983L49.3764 76.2025C48.9127 76.0234 48.3989 76.0234 47.9352 76.2025L25.6791 84.7983C24.3252 85.3213 22.8826 84.2732 22.9615 82.8239L24.2591 59.0008C24.2862 58.5045 24.1274 58.0158 23.8138 57.6302L8.76114 39.1196C7.84541 37.9935 8.39643 36.2977 9.79918 35.9249L32.8573 29.7973C33.3377 29.6696 33.7533 29.3676 34.0232 28.9502L46.9762 8.91417Z" fill="#303641" stroke="#B7BAC0" stroke-width="2"/>
</svg>
