<svg width="25" height="20" viewBox="0 0 25 20" fill="none" xmlns="http://www.w3.org/2000/svg">
<path d="M7.89339 19.9175C17.2651 19.9175 22.3901 12.2868 22.3901 5.66961C22.3901 5.45287 22.3856 5.23711 22.3757 5.02233C23.3705 4.31549 24.2352 3.43341 24.9172 2.42927C24.0043 2.82809 23.0218 3.09657 21.9913 3.21763C23.0432 2.59768 23.8508 1.61699 24.2318 0.4479C23.2473 1.02148 22.1572 1.43836 20.9964 1.66343C20.0667 0.690088 18.743 0.0812988 17.2773 0.0812988C14.4637 0.0812988 12.182 2.3239 12.182 5.08822C12.182 5.48118 12.2267 5.8634 12.3141 6.23004C8.07954 6.02062 4.32463 4.02798 1.81163 0.998043C1.37406 1.73807 1.12175 2.5977 1.12175 3.51494C1.12175 5.25227 2.02125 6.786 3.38908 7.68325C2.55317 7.65787 1.76792 7.43234 1.08158 7.05695C1.08083 7.07796 1.08083 7.09845 1.08083 7.1209C1.08083 9.54606 2.83708 11.5709 5.16842 12.0297C4.74028 12.1444 4.28983 12.2059 3.82492 12.2059C3.49712 12.2059 3.17775 12.1742 2.86733 12.1156C3.51598 14.1053 5.39691 15.5532 7.62691 15.5936C5.88308 16.937 3.68633 17.7371 1.29883 17.7371C0.888083 17.7371 0.482304 17.7142 0.0834961 17.6678C2.33841 19.0884 5.01592 19.9172 7.89367 19.9172" fill="#73737E"/>
</svg>
